<?xml version="1.0" encoding="utf-8"?>
<svg viewBox="0 0 16 16" width="16" height="16" fill="none" xmlns="http://www.w3.org/2000/svg">
  <path d="M 0.507 7.387 C 0.335 6.873 0.238 6.356 0.238 5.846 C 0.238 1.264 4.502 -0.818 7.988 2.93 C 11.475 -0.818 15.738 1.263 15.738 5.846 C 15.738 6.356 15.642 6.873 15.47 7.387 L 13.132 7.387 L 13.044 7.387 C 12.622 7.386 12.246 7.385 11.904 7.538 C 11.562 7.69 11.312 7.969 11.028 8.285 L 10.97 8.35 L 10.174 9.235 C 10.114 9.301 10.065 9.355 10.023 9.401 C 9.981 9.353 9.936 9.297 9.879 9.229 L 7.128 5.893 C 7.019 5.762 6.903 5.622 6.791 5.518 C 6.658 5.397 6.464 5.259 6.191 5.244 C 5.919 5.227 5.709 5.339 5.564 5.443 C 5.439 5.534 5.307 5.66 5.184 5.778 L 3.998 6.906 C 3.633 7.254 3.556 7.312 3.477 7.346 C 3.397 7.378 3.301 7.387 2.796 7.387 L 0.507 7.387 Z" style="fill: rgb(141, 165, 243); transform-origin: 7.988px 5.1971px;"/>
  <path d="M 1.016 8.543 C 2.088 10.529 4.059 12.391 5.633 13.675 C 6.665 14.517 7.182 14.937 7.988 14.937 C 8.794 14.937 9.311 14.517 10.343 13.675 C 11.918 12.391 13.889 10.529 14.961 8.543 L 13.132 8.543 C 12.57 8.543 12.464 8.556 12.378 8.595 C 12.291 8.633 12.21 8.705 11.835 9.121 L 11.018 10.03 C 10.895 10.166 10.766 10.309 10.641 10.414 C 10.499 10.534 10.283 10.669 9.996 10.663 C 9.706 10.656 9.498 10.514 9.36 10.387 C 9.241 10.278 9.118 10.128 9.002 9.987 L 6.249 6.65 C 6.196 6.586 6.154 6.535 6.116 6.491 C 6.074 6.53 6.025 6.576 5.965 6.633 L 4.744 7.796 C 4.468 8.059 4.224 8.294 3.908 8.419 C 3.594 8.545 3.255 8.544 2.874 8.543 L 1.016 8.543 Z" style="fill: rgb(141, 165, 243); transform-origin: 7.9885px 10.714px;"/>
</svg>